<svg width="1003" height="981" viewBox="0 0 1003 981" fill="none" xmlns="http://www.w3.org/2000/svg">
<g clip-path="url(#clip0_592_417)">
<path d="M73.1143 906.207C70.7243 905.719 68.2437 905.479 65.6804 905.479H30.082C27.8101 905.479 26.6722 904.343 26.6722 902.075V886.48C26.6722 885.434 26.9636 884.585 27.5384 883.944C28.1724 883.245 29.0189 882.895 30.082 882.895H93.1441V856.882H1.16151V980.09H66.0427C68.6059 980.09 71.0787 979.846 73.4529 979.359C75.8351 978.871 78.1582 978.136 80.4065 977.157C82.6784 976.171 84.8046 975.003 86.7772 973.666C88.7459 972.334 90.5887 970.808 92.3015 969.098C94.0103 967.392 95.5262 965.545 96.8531 963.559C98.1761 961.578 99.318 959.435 100.275 957.151C102.18 952.599 103.133 947.775 103.133 942.688C103.133 940.062 102.889 937.546 102.401 935.145C101.913 932.743 101.176 930.411 100.196 928.163C99.2156 925.91 98.0462 923.803 96.7035 921.837C95.3569 919.872 93.8331 918.052 92.1322 916.385C90.4272 914.714 88.5727 913.208 86.5764 911.88C84.592 910.559 82.446 909.399 80.1426 908.412C77.851 907.429 75.5043 906.69 73.1104 906.203L73.1143 906.207ZM154.241 883.421C154.836 882.824 155.619 882.533 156.584 882.533H227.82V856.701H127.845V980.09H227.82V954.62H156.584C155.612 954.62 154.828 954.325 154.241 953.735C153.655 953.149 153.355 952.367 153.355 951.396V941.965C153.355 939.697 154.434 938.561 156.584 938.561H213.835V913.271H156.584C155.58 913.271 154.777 912.937 154.178 912.269C153.631 911.655 153.355 910.854 153.355 909.867V885.749C153.355 884.786 153.651 884.003 154.241 883.418V883.421ZM348.499 980.09H375.616L331.123 856.516H297.462L252.969 980.09H280.082L310.857 894.7C311.089 893.894 311.515 893.257 312.129 892.805C312.727 892.365 313.448 892.141 314.286 892.141C315.129 892.141 315.85 892.365 316.448 892.805C317.062 893.257 317.488 893.89 317.72 894.7L348.495 980.09H348.499ZM487.451 980.271H514.572L470.079 856.701H434.965L390.472 980.271H417.577L421.743 968.473C422.416 966.913 423.503 966.13 425.007 966.13H479.86C480.687 966.13 481.403 966.362 481.994 966.822C482.545 967.259 482.939 967.844 483.171 968.587L487.455 980.275L487.451 980.271ZM433.284 937.59C433.217 937.024 433.304 936.45 433.536 935.872L449.101 892.506C449.589 890.816 450.707 889.967 452.436 889.967C453.231 889.967 453.932 890.183 454.538 890.604C455.121 891.017 455.57 891.583 455.881 892.314C460.862 906.871 466.311 921.531 471.564 936.013C472.516 939.111 471.414 940.66 468.236 940.66H436.816C436.249 940.66 435.713 940.534 435.217 940.29C434.725 940.051 434.304 939.693 433.949 939.225C433.571 938.734 433.351 938.187 433.288 937.598L433.284 937.59ZM603.917 858.108C600.468 857.413 596.884 857.063 593.16 857.063H533.728V980.271H559.054V963.952H593.16C596.936 963.952 600.586 963.587 604.114 962.86C607.646 962.132 611.083 961.035 614.426 959.569C621.1 956.648 627.014 952.379 632.168 946.769C634.452 944.253 636.495 941.568 638.291 938.714C640.074 935.884 641.618 932.876 642.913 929.7C644.201 926.547 645.169 923.355 645.811 920.135C646.457 916.927 646.776 913.684 646.776 910.417C646.776 906.702 646.425 903.121 645.728 899.677C645.028 896.221 643.972 892.868 642.571 889.625C641.161 886.374 639.495 883.331 637.574 880.508C635.664 877.698 633.487 875.091 631.054 872.689C628.62 870.291 625.982 868.137 623.139 866.234C620.285 864.324 617.229 862.665 613.981 861.265C610.709 859.862 607.35 858.808 603.909 858.112L603.917 858.108ZM598.601 937.951C596.774 938.305 594.9 938.482 592.979 938.482H562.826C561.707 938.482 560.81 938.175 560.136 937.566C559.416 936.91 559.054 936.017 559.054 934.897V886.118C559.054 884.966 559.396 884.047 560.073 883.37C560.758 882.694 561.676 882.352 562.826 882.352H593.16C595.073 882.352 596.955 882.541 598.802 882.918C600.625 883.288 602.401 883.85 604.122 884.589C605.838 885.328 607.437 886.209 608.913 887.219C610.398 888.233 611.776 889.397 613.044 890.69C614.312 891.988 615.442 893.379 616.43 894.857C617.414 896.339 618.281 897.936 619.029 899.65C619.777 901.36 620.336 903.133 620.71 904.965C621.084 906.808 621.273 908.687 621.273 910.598C621.273 912.509 621.084 914.388 620.71 916.231C620.336 918.063 619.777 919.836 619.033 921.55C618.285 923.264 617.402 924.864 616.398 926.331C615.383 927.813 614.225 929.189 612.926 930.455C611.626 931.716 610.228 932.841 608.736 933.816C607.24 934.795 605.634 935.64 603.929 936.347C602.212 937.059 600.436 937.594 598.609 937.951H598.601ZM758.631 864.67L761.233 857.428H734.293L710.157 924.361L686.213 857.428H659.289L692.765 950.877L691.285 951.553C686.808 953.598 681.287 954.62 674.751 954.62H669.259V980.09H674.751C677.508 980.09 680.236 979.984 682.933 979.779C685.682 979.567 688.375 979.257 691.009 978.848C693.627 978.443 696.199 977.814 698.707 976.969C701.207 976.127 703.66 975.062 706.058 973.776C708.432 972.507 710.736 970.938 712.956 969.079C715.197 967.211 717.358 965.041 719.437 962.588C721.508 960.139 723.465 957.281 725.304 954.026C727.151 950.747 728.879 947.068 730.478 942.991C735.097 930.478 739.684 917.953 744.259 905.424L747.362 896.689L755.13 874.458L756.993 869.281C758.009 866.521 758.516 865.35 758.516 865.263V864.976L758.627 864.67H758.631ZM877.057 965.777L880.246 963.288L871.344 936.619L865.182 942.362C863.217 944.186 861.114 945.806 858.87 947.209C856.622 948.617 854.232 949.812 851.712 950.783C849.192 951.758 846.581 952.497 843.896 952.98C841.199 953.472 838.446 953.72 835.635 953.72C832.824 953.72 830.076 953.472 827.394 952.98C824.721 952.493 822.134 951.758 819.645 950.783C817.153 949.808 814.79 948.617 812.558 947.209C810.345 945.814 808.25 944.194 806.285 942.358C804.439 940.652 802.813 938.82 801.395 936.87C799.978 934.905 798.777 932.829 797.788 930.631C796.8 928.43 796.052 926.169 795.56 923.866C795.06 921.546 794.812 919.176 794.812 916.766C794.812 911.872 795.773 907.276 797.694 902.991C799.608 898.726 802.466 894.787 806.262 891.186L806.278 891.182C808.246 889.346 810.341 887.722 812.558 886.327C814.79 884.919 817.153 883.724 819.645 882.753C822.134 881.778 824.721 881.043 827.394 880.556C830.076 880.064 832.824 879.816 835.635 879.816C838.458 879.816 841.203 880.052 843.864 880.524C846.522 880.992 849.105 881.707 851.605 882.655C854.114 883.606 856.48 884.774 858.705 886.162C860.918 887.537 863.012 889.153 864.985 890.997L871.151 896.733L880.046 870.099L876.872 867.756C870.856 863.105 864.41 859.614 857.543 857.287C850.684 854.963 843.376 853.804 835.635 853.804C831.312 853.804 827.095 854.185 822.992 854.948C818.889 855.71 814.869 856.862 810.943 858.395C807.026 859.925 803.321 861.808 799.836 864.041C796.343 866.274 793.067 868.864 790.004 871.805L789.988 871.817C783.629 877.816 778.739 884.668 775.325 892.369C773.617 896.225 772.337 900.18 771.486 904.233C770.636 908.286 770.211 912.465 770.211 916.77C770.211 921.079 770.636 925.265 771.486 929.33C772.337 933.411 773.62 937.389 775.325 941.269C777.03 945.142 779.105 948.805 781.547 952.241C783.992 955.681 786.807 958.905 789.988 961.904C793.052 964.79 796.336 967.337 799.82 969.539C803.309 971.744 807.018 973.611 810.943 975.145C814.869 976.678 818.885 977.826 822.988 978.588C827.091 979.351 831.308 979.732 835.631 979.732C843.439 979.732 850.794 978.569 857.685 976.245C864.575 973.922 871.033 970.431 877.049 965.777H877.057ZM929.807 921.299V856.701H904.3V980.271H927.354L972.383 910.775C972.552 910.468 972.764 910.217 973.008 910.032C973.654 909.54 974.339 909.481 975.04 909.827C975.517 910.059 975.847 910.425 976.044 910.92C976.162 911.219 976.222 911.534 976.222 911.864V980.267H1001.73V856.697H978.111L933.63 922.415C933.461 922.71 933.256 922.95 933.024 923.127L933.004 923.143C932.374 923.606 931.701 923.677 930.988 923.331L930.976 923.327C930.52 923.099 930.189 922.742 929.992 922.246C929.87 921.955 929.811 921.637 929.811 921.295L929.807 921.299ZM102.881 683.106H0.00390625V806.315H25.5106V708.573H77.1896V806.315H102.881V683.106V683.106ZM226.312 806.68H253.433L208.94 683.106H173.826L129.329 806.68H156.438L160.6 794.879C160.9 794.187 161.309 793.633 161.821 793.232C162.412 792.768 163.093 792.536 163.864 792.536H218.717C219.544 792.536 220.26 792.768 220.847 793.228C221.41 793.672 221.808 794.269 222.036 795.024L226.312 806.68ZM172.141 763.991C172.078 763.425 172.161 762.851 172.397 762.277L187.958 718.928C188.442 717.225 189.56 716.368 191.297 716.368C192.088 716.368 192.789 716.585 193.399 717.009C193.982 717.418 194.431 717.988 194.742 718.719C200.053 733.249 205.152 747.869 210.429 762.411C210.834 763.743 210.744 764.84 210.145 765.705C209.519 766.605 208.503 767.061 207.101 767.061H175.677C175.106 767.061 174.57 766.94 174.078 766.692L174.066 766.688C173.586 766.444 173.165 766.094 172.818 765.63C172.436 765.135 172.216 764.585 172.149 763.991H172.141ZM356.429 708.573V683.106H247.555V708.573H286.279C287.193 708.573 287.933 708.852 288.488 709.41C289.047 709.964 289.327 710.704 289.327 711.616V806.676H314.834V711.616C314.834 710.711 315.113 709.976 315.672 709.418C316.239 708.856 316.972 708.573 317.881 708.573H356.425H356.429ZM443.06 684.514C439.611 683.818 436.028 683.468 432.303 683.468H372.872V806.676H398.197V790.354H432.303C436.075 790.354 439.729 789.992 443.253 789.261C446.785 788.534 450.227 787.437 453.569 785.971C456.908 784.508 460.055 782.712 463.008 780.581C465.969 778.446 468.74 775.97 471.316 773.163C473.603 770.635 475.651 767.95 477.434 765.112C479.218 762.281 480.762 759.274 482.057 756.097C483.344 752.944 484.313 749.752 484.955 746.54C485.597 743.329 485.92 740.085 485.92 736.815C485.92 733.1 485.569 729.518 484.872 726.079C484.171 722.623 483.116 719.266 481.714 716.026C480.305 712.775 478.639 709.733 476.718 706.91C474.808 704.099 472.631 701.489 470.197 699.091C467.764 696.689 465.122 694.534 462.279 692.632C459.425 690.725 456.369 689.062 453.121 687.663C449.876 686.259 446.518 685.21 443.057 684.51L443.06 684.514ZM443.064 762.753C439.635 764.172 435.981 764.887 432.122 764.887H401.973C400.855 764.887 399.953 764.581 399.284 763.971C398.563 763.315 398.201 762.427 398.201 761.302V712.524C398.201 711.372 398.544 710.452 399.221 709.776C399.898 709.1 400.82 708.758 401.973 708.758H432.303C434.217 708.758 436.099 708.946 437.946 709.32C439.781 709.693 441.556 710.251 443.269 710.994C444.986 711.741 446.588 712.622 448.057 713.624C449.541 714.639 450.92 715.798 452.188 717.092C453.44 718.381 454.57 719.773 455.566 721.263C456.566 722.761 457.436 724.357 458.172 726.051C458.913 727.769 459.472 729.542 459.846 731.366C460.224 733.21 460.413 735.089 460.413 736.999C460.413 738.91 460.224 740.789 459.85 742.633C459.476 744.461 458.917 746.234 458.176 747.94C457.428 749.662 456.546 751.258 455.538 752.728C454.522 754.21 453.361 755.586 452.065 756.852C450.77 758.114 449.372 759.238 447.876 760.217C446.38 761.196 444.777 762.041 443.068 762.753H443.064ZM530.239 747.7V683.102H504.729V806.676H527.786L572.815 737.176C572.988 736.866 573.197 736.618 573.433 736.437L573.469 736.41C574.102 735.95 574.776 735.895 575.469 736.237C576.256 736.618 576.65 737.306 576.65 738.273V806.676H602.157V683.102H578.54L534.063 748.813C533.413 750 532.523 750.299 531.385 749.721C530.621 749.336 530.235 748.656 530.235 747.696L530.239 747.7ZM731.742 710.472C730.754 707.228 729.407 704.083 727.71 701.048C725.572 697.298 722.969 694.067 719.914 691.358C716.847 688.645 713.315 686.448 709.318 684.769L709.255 684.742C701.998 681.353 692.316 679.655 680.22 679.655C668.365 679.655 658.679 681.357 651.162 684.754L651.146 684.757C647.193 686.499 643.697 688.728 640.669 691.437C637.637 694.145 635.042 697.361 632.896 701.068C631.617 703.274 630.554 705.538 629.715 707.857C628.876 710.169 628.25 712.547 627.845 714.981C627.423 717.497 627.081 720.048 626.813 722.615C626.545 725.21 626.348 727.852 626.23 730.54L626.155 732.235H626.057V742.794C626.057 746.788 626.132 750.617 626.277 754.285C626.423 757.965 626.656 761.644 626.959 765.316C627.254 768.834 627.896 772.219 628.88 775.466C629.868 778.717 631.211 781.859 632.9 784.886C635.046 788.597 637.641 791.812 640.673 794.521C643.701 797.226 647.197 799.455 651.15 801.196L651.166 801.204C654.907 802.894 659.187 804.164 664.002 805.017C668.861 805.874 674.271 806.307 680.224 806.307C686.3 806.307 691.765 805.878 696.628 805.017C701.451 804.168 705.664 802.898 709.259 801.22L709.322 801.184C717.303 797.835 723.438 792.414 727.714 784.921C730.159 780.502 731.821 775.844 732.691 770.961C733.144 768.426 733.514 765.878 733.793 763.319C734.077 760.72 734.282 758.086 734.396 755.413L734.47 753.719H734.573V743.16C734.573 739.11 734.498 735.246 734.352 731.566C734.203 727.867 733.974 724.192 733.671 720.547C733.376 717.06 732.738 713.695 731.75 710.464L731.742 710.472ZM708.598 734.692C708.661 737.617 708.696 740.443 708.696 743.168V743.348C708.696 746.077 708.665 748.887 708.598 751.769C708.535 754.517 708.444 757.123 708.322 759.572C708.196 762.167 707.877 764.502 707.365 766.574C706.838 768.713 706.109 770.58 705.18 772.168L704.538 773.06L703.68 774.181C703.231 774.743 702.64 775.282 701.904 775.789C701.227 776.253 700.419 776.709 699.486 777.141C698.549 777.573 697.47 777.978 696.254 778.344C695.088 778.698 693.734 779.036 692.202 779.354C690.663 779.677 688.887 779.917 686.887 780.07C684.894 780.223 682.67 780.302 680.217 780.302C677.819 780.302 675.629 780.223 673.653 780.07C671.688 779.917 669.912 779.677 668.329 779.354C666.75 779.036 665.38 778.698 664.223 778.344C662.998 777.978 661.927 777.57 661.014 777.129C660.1 776.685 659.313 776.233 658.667 775.777C657.946 775.262 657.364 774.727 656.934 774.185L656.076 773.064L655.438 772.172C654.509 770.588 653.78 768.689 653.253 766.499C652.741 764.38 652.418 761.974 652.292 759.305C652.174 756.754 652.083 754.081 652.02 751.293C651.957 748.365 651.922 745.534 651.922 742.814V742.448C651.922 739.783 651.957 737.019 652.02 734.173C652.083 731.452 652.174 728.862 652.292 726.413C652.418 723.818 652.741 721.483 653.253 719.411C653.78 717.277 654.509 715.409 655.438 713.817C655.604 713.51 655.804 713.184 656.048 712.846C656.304 712.488 656.619 712.095 656.978 711.667C657.415 711.152 657.99 710.648 658.694 710.169C659.332 709.733 660.108 709.292 661.021 708.86C661.943 708.416 663.014 708.011 664.219 707.645C665.376 707.295 666.75 706.957 668.329 706.635C669.912 706.312 671.688 706.073 673.653 705.919C675.629 705.766 677.819 705.687 680.217 705.687C682.67 705.687 684.894 705.766 686.887 705.919C688.887 706.077 690.659 706.316 692.202 706.635C693.738 706.953 695.092 707.291 696.262 707.645C697.47 708.011 698.549 708.412 699.486 708.844C700.408 709.273 701.211 709.713 701.88 710.157C702.605 710.633 703.191 711.14 703.636 711.667C703.999 712.095 704.31 712.488 704.57 712.846C704.81 713.184 705.014 713.514 705.176 713.821C706.109 715.409 706.841 717.3 707.369 719.49C707.877 721.621 708.2 724.019 708.322 726.688C708.444 729.239 708.535 731.912 708.598 734.708V734.692ZM861.52 708.573V683.106H752.642V708.573H791.37C792.276 708.573 793.012 708.856 793.571 709.41C794.135 709.976 794.418 710.711 794.418 711.616V806.676H819.929V711.616C819.929 710.711 820.208 709.976 820.767 709.418C821.323 708.856 822.063 708.573 822.976 708.573H861.52ZM941.379 733.339C938.989 732.852 936.508 732.608 933.945 732.608H906.883C904.611 732.608 903.473 731.472 903.473 729.204V682.922H877.963V806.853H934.307C936.871 806.853 939.343 806.609 941.718 806.126C944.104 805.638 946.423 804.903 948.675 803.924C950.923 802.949 953.042 801.79 955.022 800.453C956.979 799.132 958.798 797.631 960.48 795.952C962.161 794.277 963.661 792.461 964.984 790.503C966.315 788.553 967.476 786.438 968.465 784.166C969.445 781.917 970.181 779.602 970.666 777.224C971.154 774.853 971.398 772.38 971.398 769.821C971.398 767.262 971.154 764.793 970.67 762.423C970.181 760.044 969.445 757.725 968.465 755.476C967.472 753.212 966.307 751.089 964.968 749.119C963.645 747.17 962.114 745.326 960.385 743.6C958.676 741.894 956.826 740.368 954.837 739.032C952.841 737.687 950.695 736.524 948.411 735.541C946.12 734.558 943.773 733.819 941.379 733.336V733.339ZM904.34 759.124C904.966 758.425 905.816 758.079 906.883 758.079H934.126C935.733 758.079 937.237 758.358 938.639 758.912C940.04 759.466 941.312 760.296 942.446 761.397C943.588 762.501 944.454 763.747 945.029 765.135C945.604 766.519 945.895 768.025 945.895 769.644C945.95 771.244 945.714 772.738 945.179 774.126C944.627 775.553 943.781 776.834 942.647 777.971C941.521 779.095 940.249 779.952 938.839 780.526C937.426 781.1 935.918 781.391 934.307 781.391H906.879C904.607 781.391 903.469 780.255 903.469 777.986V761.664C903.469 760.614 903.761 759.769 904.336 759.124H904.34ZM1003 806.857V683.283H977.493V806.857H1003ZM26.6761 934.535C26.6761 932.145 27.8141 930.95 30.086 930.95H65.8655C67.472 930.95 68.9761 931.229 70.3738 931.783C71.7716 932.338 73.0434 933.167 74.1814 934.264C75.3232 935.368 76.1895 936.619 76.7643 938.002C77.3392 939.39 77.6306 940.896 77.6306 942.512C77.6857 944.116 77.4494 945.617 76.9218 947.013C76.3784 948.432 75.5398 949.737 74.3979 950.909C72.1142 953.259 69.3265 954.439 66.0505 954.439H30.0899C27.818 954.439 26.6801 953.303 26.6801 951.034V934.535H26.6761Z" fill="white"/>
<path fill-rule="evenodd" clip-rule="evenodd" d="M896.603 477.887L889.232 476.762C873.289 474.329 850.275 470.905 826.016 468.377C761.501 461.663 729.596 450.753 671.247 437.277L660.226 437.521C660.057 436.935 659.903 436.251 659.722 435.626L659.758 435.614L659.608 435.237L659.604 435.217C658.848 432.882 657.108 429.175 655.186 425.778C654.883 425.232 654.584 424.721 654.285 424.229L654.107 423.935L654.068 423.872C652.591 421.446 651.103 419.386 649.949 418.4L649.946 418.396C647.39 415.711 645.315 414.759 643.886 413.706L643.882 413.702L643.866 413.69C643.437 413.348 643.067 413.018 642.799 412.707L642.768 412.668L642.736 412.628L642.724 412.613C642.602 412.459 642.492 412.294 642.393 412.121C640.389 408.591 638.984 405.533 638.822 401.617C638.783 400.005 638.932 398.476 639.118 397.257C639.255 396.404 639.444 395.508 639.688 394.561C641.452 389.108 643.563 384.052 645.638 379.65C647.229 376.414 649.13 372.79 651.391 368.693C651.891 367.785 652.528 366.649 653.277 365.324L711.96 264.748L716.39 242.788C716.559 242.293 716.697 241.837 716.807 241.416C719.65 234.918 722.426 228.372 724.347 223.486C723.804 222.491 723.316 221.473 722.879 220.424C722.694 219.975 722.513 219.519 722.331 219.067L749.063 224.241L766.537 232.445L768.892 260.872L774.195 265.326L787.189 259.724L795.312 247.761C795.312 247.761 802.38 245.662 810.223 243.327C832.194 236.793 831.139 235.099 832.123 215.592L834.564 167.112L843.057 154.713C844.404 152.748 845.451 151.156 846.349 148.636C846.195 145.369 844.617 142.161 843.75 138.922L832.383 105.29L875.852 90.6856V90.6817L898.961 82.9175L872.765 78.4949L872.761 78.4792L818.137 69.2172L806.474 53.6064C784.543 30.5302 773.577 33.4629 745.298 27.5621C720.418 22.369 703.577 19.5503 679.98 10.0564C657.864 1.16006 641.736 -2.16575 612.67 1.41952C575.713 5.9758 529.141 18.5006 509.229 27.5778C490.428 36.1439 471.938 49.9071 453.743 70.0939C439.985 85.3549 424.547 114.749 409.852 134.452C367.875 190.723 310.412 217.511 276.251 235.154C258.548 244.294 244.176 256.084 234.191 270.161C225.887 273.574 214.276 294.543 202.967 303.506C194.116 310.519 176.823 322.281 166.92 331.071C161.593 334.205 153.922 334.063 147.186 335.113C139.57 336.304 133.239 339.099 126.25 341.383C112.528 345.869 111.556 358.075 100.436 364.322C94.4474 367.687 89.2579 369.554 91.9747 371.28C92.5299 371.469 107.953 371.19 112.764 371.649C122.313 372.565 126.794 371.61 134.326 369.342C152.249 363.936 160.829 353.932 172.515 341.682C188.584 326.924 205.353 318.735 219.839 303.95C218.552 311.003 218.126 318.397 218.646 326.11C219.993 346.136 230.868 366.114 233.778 385.161C235.644 397.371 237.605 425.535 234.199 436.212L220.623 478.803C222.265 492.161 227.781 503.766 229.242 518.5C229.919 525.309 229.25 530.636 230.112 536.002L233.38 556.369L241.865 568.155C191.364 572.456 126.872 574.563 91.6125 576.894L91.8605 577.15L141.709 577.323C159.844 578.431 179.102 578.357 197.841 577.681L267.352 578.581C322.469 579.296 328.639 578.813 376.707 555.214L513.466 488.076C513.49 487.892 547.119 458.993 555.707 453.596C566.456 448.245 577.737 443.382 581.69 444.672L623.797 458.392L673.342 462.803L692.734 475.595C702.613 482.113 831.784 491.099 842.439 491.536C845.617 491.666 839.537 489.991 829.82 487.557C819.811 485.049 875.025 489.841 868.414 487.023C861.26 483.976 879.683 477.053 889.83 477.993C890.342 478.04 890.881 478.083 891.421 478.122L892.917 478.295C896.858 478.763 896.543 478.952 896.563 478.555L896.595 477.895L896.603 477.887ZM762.009 113.502L788.102 128.995C789.532 127.077 787.343 107.554 796.328 104.952C796.588 104.873 854.098 88.8615 874.301 84.4193L874.163 83.8767C860.335 83.4247 788.276 81.4551 773.9 88.8537C768.77 91.4954 762.06 106.155 762.013 113.502H762.009ZM825.205 228.95L825.209 225.55C825.142 224.044 824.177 225.231 823.303 225.707L812.156 232.575L808.439 234.863C807.979 235.15 807.904 235.154 807.923 235.28C807.931 235.346 807.979 235.437 808.435 235.582L810.762 236.314C811.79 236.636 812.369 236.62 812.837 236.561C813.428 236.486 813.869 236.266 815.145 235.751L822.968 232.599C825.024 231.891 825.197 232.064 825.205 228.946V228.95ZM789.138 156.502C793.083 161.998 799.076 162.308 802.958 162.037C804.364 161.939 805.289 166.271 807.896 164.404C808.128 164.235 807.904 164.011 807.853 163.433L807.36 161.385C805.463 155.665 800.245 150.527 796.107 147.7C795.332 147.169 795.339 147.169 794.654 146.69C793.89 146.155 792.914 146.426 792.768 146.525L787.346 150.483C786.98 150.79 786.937 151.737 787 151.899C788.406 155.307 787.374 154.08 789.138 156.498V156.502ZM612.063 438.578L605.106 438.728C585.261 436.703 592.29 434.576 582.71 437.344C569.622 441.122 541.63 452.098 519.809 467.072C503.823 478.044 484.164 485.324 464.327 492.043C458.775 478.74 456.137 481.865 441.017 465.857C435.509 460.019 431.748 458.459 425.992 451.496C411.868 434.407 412.538 423.557 419.534 415.518C427.114 406.81 442.12 401.397 453.806 394.922C438.603 394.899 405.088 391.667 377.341 390.924C365.186 390.598 354.527 394.993 352.37 395.225C352.992 407.16 351.759 421.01 356.445 434.675C365.599 461.391 382.715 445.796 403.068 484.102C412.356 503.966 408.632 496.619 419.2 505.205L421.424 507.296C417.491 508.935 413.672 510.661 409.998 512.497C395.701 519.648 381.404 526.799 367.107 533.946C334.108 550.445 312.164 557.977 290.528 562.25C289.666 562.408 288.784 562.569 287.882 562.722C287.701 562.29 287.425 561.712 287.134 561.13C284.657 556.145 281.527 545.543 278.822 539.803C273.581 528.698 268.636 515.583 267.466 508.546C263.301 483.489 275.105 467.819 286.654 455.255C300.1 440.627 309.388 435.131 321.256 418.443C330.938 404.825 334.683 396.282 337.36 390.967C362.138 380.275 409.285 388.444 457.81 389.741C459.74 389.792 471.989 387.194 483.829 382.68C492.424 379.402 498.134 376.662 503.26 374.224C504.512 373.631 510.166 370.293 508.461 371.929C503.126 377.047 490.566 382.256 493.834 382.012C518.549 380.149 540.398 361.845 573.752 349.733C573.752 349.733 582.781 346.773 551.494 368.658C563.436 367.262 580.343 362.942 603.472 352.265C604.862 365.926 606.953 379.712 606.527 390.618L598.936 406.205C602.972 418.981 607.531 427.213 612.067 438.578H612.063ZM654.525 363.115C659.403 354.427 667.329 340.121 672.716 327.286L672.763 327.176C672.991 326.645 673.22 326.087 673.448 325.505C676.11 318.936 678.023 312.85 678.405 308.239V308.227C678.512 307.606 678.586 306.969 678.638 306.325C678.835 305.118 679.114 303.997 679.464 302.948C679.752 306.356 679.65 310.413 678.996 315.28C677.708 324.852 677.763 328.728 678.653 328.89C679.701 329.082 681.902 324.168 684.449 317.371C685.591 314.325 688.832 307.166 690.706 303.852C693.096 299.638 694.128 299.535 694.99 299.197C695.604 298.957 696.033 299.268 695.962 299.917C695.773 301.65 694.632 305.644 694.135 308.329C693.852 309.855 693.777 310.963 694.198 310.995C694.454 311.014 694.935 310.582 695.71 309.603C706.03 296.591 709.68 278.959 711.956 264.744L654.521 363.103L654.525 363.115ZM705.641 300.609C709.814 302.554 711.448 303.25 714.256 304.339C723.107 307.763 727.789 307.704 744.672 308.923C742.255 314.336 742.054 311.926 738.388 315.767C742.751 317.666 742.125 316.467 747.381 316.896C745.968 320.052 745.917 319.875 743.066 322.757C740.963 324.88 738.888 326.629 736.309 328.265C728.879 332.982 729.057 333.006 729.604 341.619C729.624 341.918 729.702 342.425 729.639 342.822C719.752 342.916 724.702 338.049 720.229 332.125C710.688 326.291 687.43 353.605 679.732 359.337L691.17 361.562C709.204 364.79 707.814 367.121 727.395 364.424C756.473 360.422 748.393 344.394 757.512 329.719C762.056 322.403 772.046 309.084 774.896 300.609C776.979 294.413 773.179 278.598 769.36 273.094C763.824 265.118 764.816 277.131 749.708 260.97L742.542 254.413C739.837 251.94 740.231 251.916 736.297 250.289C730.383 247.848 720.717 244.502 721.221 243.822L718.788 259.307C716.587 274.572 714.248 284.951 705.641 300.601V300.609ZM532.598 465.814C532.767 465.668 532.944 465.539 533.126 465.429L532.598 465.814Z" fill="white"/>
</g>
<defs>
<clipPath id="clip0_592_417">
<rect width="1003" height="981" fill="white"/>
</clipPath>
</defs>
</svg>
