<svg width="2156" height="556" viewBox="0 0 2156 556" fill="none" xmlns="http://www.w3.org/2000/svg">
<g clip-path="url(#clip0_730_26)">
<path d="M987.487 364.645C984.487 364.037 981.369 363.731 978.146 363.731H933.415C930.557 363.731 929.129 362.306 929.129 359.457V339.887C929.129 338.572 929.494 337.51 930.218 336.704C931.015 335.827 932.08 335.389 933.415 335.389H1012.66V302.746H897.075V457.364H978.606C981.828 457.364 984.934 457.058 987.918 456.45C990.914 455.84 993.831 454.918 996.658 453.687C999.516 452.447 1002.19 450.986 1004.66 449.31C1007.14 447.637 1009.45 445.721 1011.6 443.574C1013.75 441.433 1015.65 439.116 1017.32 436.625C1018.99 434.139 1020.42 431.454 1021.62 428.585C1024.02 422.873 1025.22 416.819 1025.22 410.437C1025.22 407.139 1024.91 403.98 1024.3 400.969C1023.69 397.956 1022.76 395.029 1021.53 392.206C1020.29 389.381 1018.83 386.733 1017.14 384.27C1015.45 381.803 1013.53 379.522 1011.4 377.427C1009.25 375.329 1006.92 373.442 1004.42 371.774C1001.92 370.115 999.223 368.662 996.327 367.422C993.448 366.186 990.5 365.259 987.489 364.649L987.487 364.645ZM1089.43 336.049C1090.18 335.301 1091.17 334.935 1092.38 334.935H1181.89V302.518H1056.26V457.362H1181.89V425.402H1092.38C1091.15 425.402 1090.17 425.032 1089.43 424.293C1088.69 423.559 1088.32 422.577 1088.32 421.356V409.522C1088.32 406.673 1089.68 405.251 1092.38 405.251H1164.32V373.514H1092.38C1091.11 373.514 1090.1 373.094 1089.35 372.256C1088.67 371.483 1088.32 370.479 1088.32 369.243V338.976C1088.32 337.77 1088.69 336.786 1089.43 336.047V336.049ZM1333.54 457.362H1367.61L1311.7 302.288H1269.41L1213.5 457.362H1247.57L1286.24 350.202C1286.54 349.188 1287.07 348.394 1287.84 347.825C1288.6 347.273 1289.5 346.993 1290.55 346.993C1291.61 346.993 1292.52 347.275 1293.27 347.825C1294.05 348.394 1294.58 349.188 1294.87 350.202L1333.54 457.362H1333.54ZM1508.15 457.591H1542.23L1486.32 302.518H1442.2L1386.28 457.591H1420.34L1425.58 442.784C1426.42 440.825 1427.79 439.841 1429.68 439.841H1498.61C1499.65 439.841 1500.55 440.135 1501.29 440.709C1501.98 441.255 1502.48 441.993 1502.76 442.926L1508.15 457.591H1508.15ZM1440.08 404.028C1440 403.318 1440.1 402.596 1440.4 401.872L1459.95 347.451C1460.57 345.329 1461.97 344.262 1464.14 344.262C1465.14 344.262 1466.02 344.532 1466.79 345.06C1467.52 345.579 1468.08 346.291 1468.47 347.205C1474.74 365.473 1481.58 383.872 1488.18 402.046C1489.38 405.931 1487.99 407.878 1484 407.878H1444.51C1443.8 407.878 1443.13 407.722 1442.51 407.412C1441.89 407.107 1441.35 406.659 1440.91 406.073C1440.44 405.457 1440.16 404.773 1440.08 404.028V404.028ZM1654.5 304.283C1650.17 303.408 1645.66 302.97 1640.98 302.97H1566.3V457.589H1598.13V437.108H1640.98C1645.73 437.108 1650.32 436.651 1654.75 435.737C1659.19 434.825 1663.51 433.446 1667.71 431.612C1676.09 427.947 1683.53 422.587 1690 415.546C1692.87 412.391 1695.44 409.02 1697.7 405.439C1699.94 401.886 1701.88 398.11 1703.5 394.123C1705.12 390.164 1706.34 386.16 1707.15 382.121C1707.96 378.092 1708.36 374.024 1708.36 369.925C1708.36 365.263 1707.92 360.768 1707.04 356.45C1706.17 352.111 1704.84 347.903 1703.08 343.836C1701.31 339.755 1699.21 335.937 1696.8 332.392C1694.4 328.867 1691.66 325.592 1688.6 322.581C1685.55 319.57 1682.23 316.867 1678.66 314.48C1675.07 312.083 1671.23 310.003 1667.15 308.242C1663.04 306.479 1658.82 305.155 1654.5 304.281L1654.5 304.283ZM1647.82 404.481C1645.53 404.925 1643.17 405.149 1640.75 405.149H1602.87C1601.46 405.149 1600.33 404.765 1599.49 403.996C1598.58 403.17 1598.12 402.052 1598.12 400.649V339.435C1598.12 337.986 1598.55 336.836 1599.41 335.985C1600.26 335.137 1601.42 334.707 1602.87 334.707H1640.98C1643.39 334.707 1645.75 334.945 1648.07 335.415C1650.36 335.879 1652.6 336.582 1654.75 337.514C1656.91 338.444 1658.92 339.547 1660.78 340.815C1662.64 342.089 1664.38 343.546 1665.97 345.171C1667.56 346.799 1668.98 348.546 1670.22 350.4C1671.46 352.263 1672.55 354.266 1673.49 356.414C1674.42 358.559 1675.13 360.786 1675.6 363.085C1676.07 365.399 1676.3 367.758 1676.3 370.155C1676.3 372.554 1676.07 374.915 1675.6 377.225C1675.13 379.526 1674.42 381.751 1673.49 383.9C1672.55 386.052 1671.44 388.057 1670.18 389.896C1668.9 391.758 1667.44 393.485 1665.81 395.071C1664.18 396.654 1662.42 398.064 1660.55 399.293C1658.67 400.521 1656.65 401.582 1654.5 402.472C1652.35 403.366 1650.12 404.036 1647.82 404.483V404.481ZM1848.92 312.516L1852.19 303.426H1818.33L1788 387.425L1757.92 303.426H1724.09L1766.15 420.7L1764.29 421.552C1758.67 424.119 1751.73 425.404 1743.52 425.404H1736.61V457.364H1743.52C1746.98 457.364 1750.41 457.232 1753.8 456.974C1757.25 456.712 1760.63 456.32 1763.94 455.808C1767.23 455.298 1770.46 454.511 1773.62 453.449C1776.76 452.393 1779.85 451.056 1782.86 449.444C1785.84 447.849 1788.73 445.883 1791.53 443.548C1794.34 441.203 1797.06 438.484 1799.67 435.399C1802.27 432.33 1804.73 428.743 1807.04 424.651C1809.37 420.536 1811.54 415.918 1813.54 410.805C1819.35 395.101 1825.11 379.382 1830.86 363.661L1834.76 352.697L1844.52 324.8L1846.86 318.301C1848.14 314.838 1848.78 313.37 1848.78 313.264V312.904L1848.92 312.518L1848.92 312.516ZM1997.73 439.398L2001.74 436.275L1990.55 402.806L1982.81 410.012C1980.34 412.303 1977.7 414.336 1974.88 416.095C1972.06 417.861 1969.05 419.36 1965.89 420.58C1962.72 421.804 1959.44 422.727 1956.07 423.339C1952.68 423.955 1949.22 424.265 1945.69 424.265C1942.15 424.265 1938.7 423.955 1935.33 423.339C1931.97 422.725 1928.72 421.804 1925.6 420.58C1922.47 419.356 1919.5 417.859 1916.69 416.095C1913.91 414.344 1911.28 412.311 1908.8 410.006C1906.49 407.866 1904.44 405.565 1902.66 403.118C1900.88 400.655 1899.37 398.044 1898.13 395.291C1896.89 392.529 1895.95 389.696 1895.33 386.799C1894.7 383.888 1894.39 380.917 1894.39 377.892C1894.39 371.75 1895.6 365.982 1898.01 360.606C1900.42 355.254 1904.01 350.312 1908.78 345.793L1908.8 345.785C1911.27 343.48 1913.9 341.443 1916.69 339.691C1919.49 337.926 1922.46 336.43 1925.59 335.205C1928.72 333.981 1931.97 333.06 1935.33 332.446C1938.7 331.83 1942.15 331.52 1945.69 331.52C1949.23 331.52 1952.68 331.816 1956.03 332.408C1959.37 332.998 1962.61 333.893 1965.76 335.083C1968.91 336.276 1971.89 337.744 1974.68 339.483C1977.46 341.213 1980.09 343.238 1982.57 345.551L1990.32 352.749L2001.5 319.326L1997.51 316.385C1989.95 310.549 1981.85 306.165 1973.22 303.25C1964.6 300.337 1955.42 298.877 1945.69 298.877C1940.25 298.877 1934.96 299.357 1929.8 300.311C1924.65 301.268 1919.6 302.712 1914.66 304.635C1909.74 306.553 1905.08 308.918 1900.7 311.717C1896.32 314.522 1892.2 317.771 1888.35 321.461L1888.33 321.477C1880.34 329.005 1874.19 337.604 1869.9 347.269C1867.76 352.107 1866.15 357.073 1865.08 362.158C1864.01 367.24 1863.48 372.488 1863.48 377.89C1863.48 383.293 1864.01 388.549 1865.08 393.653C1866.15 398.771 1867.76 403.768 1869.9 408.634C1872.04 413.496 1874.65 418.089 1877.72 422.403C1880.8 426.722 1884.34 430.767 1888.33 434.531C1892.18 438.152 1896.31 441.349 1900.69 444.112C1905.07 446.879 1909.73 449.226 1914.66 451.146C1919.6 453.069 1924.64 454.512 1929.8 455.47C1934.95 456.424 1940.25 456.904 1945.69 456.904C1955.5 456.904 1964.74 455.446 1973.4 452.531C1982.06 449.618 1990.17 445.236 1997.74 439.394L1997.73 439.398ZM2064.02 383.582V302.518H2031.96V457.591H2060.94L2117.52 370.379C2117.73 369.995 2118 369.679 2118.3 369.447C2119.12 368.829 2119.98 368.757 2120.86 369.193C2121.46 369.485 2121.87 369.939 2122.12 370.563C2122.27 370.941 2122.34 371.335 2122.34 371.75V457.591H2154.4V302.518H2124.72L2068.82 384.992C2068.61 385.364 2068.36 385.662 2068.06 385.886L2068.03 385.904C2067.24 386.487 2066.39 386.575 2065.5 386.138L2065.48 386.13C2064.91 385.844 2064.49 385.396 2064.24 384.774C2064.09 384.412 2064.02 384.01 2064.02 383.58V383.582ZM1024.89 84.6645H895.61V239.285H927.666V116.625H992.607V239.285H1024.89V84.6645V84.6645ZM1179.99 239.741H1214.07L1158.17 84.6645H1114.04L1058.13 239.741H1092.19L1097.42 224.93C1097.8 224.06 1098.31 223.369 1098.96 222.863C1099.7 222.281 1100.56 221.989 1101.52 221.989H1170.45C1171.49 221.989 1172.39 222.283 1173.13 222.855C1173.84 223.411 1174.34 224.164 1174.62 225.112L1179.99 239.741V239.741ZM1111.92 186.171C1111.84 185.463 1111.95 184.74 1112.24 184.02L1131.79 129.622C1132.4 127.481 1133.8 126.411 1135.99 126.411C1136.98 126.411 1137.86 126.683 1138.63 127.217C1139.36 127.729 1139.92 128.445 1140.32 129.36C1146.99 147.594 1153.4 165.942 1160.02 184.192C1160.54 185.863 1160.42 187.241 1159.67 188.324C1158.88 189.456 1157.61 190.024 1155.84 190.024H1116.36C1115.64 190.024 1114.97 189.87 1114.35 189.562L1114.33 189.554C1113.73 189.252 1113.2 188.808 1112.76 188.225C1112.28 187.603 1112 186.913 1111.92 186.169V186.171ZM1343.5 116.627V84.6645H1206.69V116.627H1255.35C1256.5 116.627 1257.43 116.979 1258.13 117.678C1258.83 118.376 1259.18 119.302 1259.18 120.445V239.741H1291.23V120.445C1291.23 119.31 1291.59 118.386 1292.29 117.686C1293 116.979 1293.92 116.627 1295.06 116.627H1343.5H1343.5ZM1452.37 86.4351C1448.03 85.5608 1443.53 85.1226 1438.85 85.1226H1364.17V239.741H1395.99V219.26H1438.85C1443.59 219.26 1448.18 218.804 1452.61 217.89C1457.05 216.975 1461.38 215.599 1465.58 213.76C1469.77 211.927 1473.73 209.669 1477.43 206.998C1481.15 204.319 1484.64 201.212 1487.87 197.691C1490.75 194.52 1493.32 191.15 1495.56 187.587C1497.81 184.034 1499.74 180.259 1501.37 176.271C1502.99 172.314 1504.21 168.311 1505.01 164.275C1505.82 160.246 1506.23 156.177 1506.23 152.073C1506.23 147.412 1505.79 142.916 1504.91 138.599C1504.03 134.261 1502.71 130.052 1500.94 125.984C1499.17 121.905 1497.08 118.088 1494.67 114.545C1492.27 111.017 1489.53 107.742 1486.47 104.731C1483.42 101.718 1480.1 99.0153 1476.52 96.6265C1472.94 94.2317 1469.1 92.149 1465.02 90.3904C1460.93 88.6318 1456.71 87.3094 1452.37 86.4331V86.4351ZM1452.37 184.622C1448.06 186.405 1443.47 187.299 1438.62 187.299H1400.74C1399.33 187.299 1398.2 186.917 1397.36 186.147C1396.45 185.326 1395.99 184.208 1395.99 182.798V121.583C1395.99 120.134 1396.42 118.982 1397.28 118.134C1398.13 117.284 1399.28 116.855 1400.73 116.855H1438.85C1441.25 116.855 1443.62 117.091 1445.94 117.562C1448.24 118.03 1450.48 118.732 1452.63 119.664C1454.79 120.603 1456.8 121.705 1458.65 122.963C1460.51 124.236 1462.25 125.69 1463.84 127.317C1465.41 128.931 1466.83 130.68 1468.08 132.551C1469.34 134.427 1470.43 136.43 1471.36 138.559C1472.29 140.715 1472.99 142.938 1473.46 145.231C1473.93 147.546 1474.17 149.905 1474.17 152.301C1474.17 154.7 1473.93 157.059 1473.46 159.372C1473 161.667 1472.29 163.889 1471.36 166.034C1470.42 168.195 1469.31 170.199 1468.05 172.042C1466.77 173.905 1465.31 175.629 1463.68 177.214C1462.05 178.798 1460.29 180.211 1458.41 181.437C1456.54 182.666 1454.52 183.728 1452.37 184.618L1452.37 184.622ZM1561.92 165.73V84.6645H1529.86V239.741H1558.84L1615.42 152.523C1615.64 152.133 1615.9 151.821 1616.2 151.595L1616.25 151.559C1617.04 150.985 1617.89 150.913 1618.76 151.339C1619.75 151.821 1620.24 152.683 1620.24 153.896V239.741H1652.29V84.6645H1622.62L1566.73 167.128C1565.91 168.621 1564.79 168.995 1563.36 168.269C1562.4 167.785 1561.92 166.93 1561.92 165.73ZM1815.13 119.012C1813.88 114.941 1812.19 110.997 1810.06 107.186C1807.37 102.479 1804.1 98.4231 1800.26 95.026C1796.41 91.6208 1791.97 88.8619 1786.95 86.7572L1786.87 86.7232C1777.75 82.4697 1765.58 80.343 1750.38 80.343C1735.48 80.343 1723.31 82.4777 1713.87 86.7432L1713.85 86.7512C1708.88 88.9359 1704.49 91.7329 1700.68 95.13C1696.87 98.5312 1693.61 102.565 1690.91 107.22C1689.3 109.987 1687.97 112.83 1686.91 115.737C1685.86 118.638 1685.08 121.623 1684.57 124.678C1684.04 127.839 1683.6 131.036 1683.27 134.261C1682.93 137.514 1682.69 140.833 1682.53 144.205L1682.44 146.335H1682.32V159.586C1682.32 164.595 1682.41 169.401 1682.59 174.005C1682.78 178.622 1683.06 183.238 1683.45 187.847C1683.82 192.263 1684.62 196.512 1685.86 200.586C1687.11 204.661 1688.79 208.606 1690.91 212.406C1693.61 217.061 1696.87 221.097 1700.68 224.496C1704.49 227.895 1708.88 230.69 1713.85 232.875L1713.86 232.883C1718.56 235.003 1723.94 236.6 1729.99 237.668C1736.1 238.745 1742.9 239.283 1750.38 239.283C1758.01 239.283 1764.88 238.743 1770.99 237.668C1777.05 236.6 1782.35 235.007 1786.87 232.899L1786.94 232.857C1796.97 228.655 1804.68 221.851 1810.05 212.45C1813.13 206.9 1815.21 201.058 1816.31 194.93C1816.88 191.749 1817.34 188.548 1817.69 185.341C1818.05 182.081 1818.3 178.77 1818.45 175.419L1818.54 173.29H1818.67V160.04C1818.67 154.96 1818.58 150.109 1818.4 145.493C1818.21 140.851 1817.92 136.238 1817.54 131.664C1817.17 127.291 1816.37 123.069 1815.13 119.012H1815.13ZM1786.04 149.406C1786.12 153.082 1786.17 156.627 1786.17 160.042V160.27C1786.17 163.693 1786.13 167.218 1786.04 170.838C1785.96 174.287 1785.85 177.556 1785.7 180.629C1785.54 183.886 1785.14 186.817 1784.5 189.416C1783.84 192.097 1782.92 194.44 1781.75 196.434L1780.94 197.557L1779.87 198.963C1779.3 199.667 1778.56 200.344 1777.64 200.98C1776.79 201.564 1775.77 202.134 1774.6 202.678C1773.42 203.223 1772.06 203.727 1770.54 204.187C1769.07 204.629 1767.37 205.053 1765.44 205.453C1763.51 205.855 1761.28 206.156 1758.77 206.35C1756.26 206.544 1753.47 206.644 1750.38 206.644C1747.37 206.644 1744.62 206.544 1742.14 206.35C1739.67 206.158 1737.43 205.857 1735.45 205.453C1733.46 205.051 1731.74 204.627 1730.29 204.187C1728.75 203.725 1727.4 203.215 1726.25 202.662C1725.11 202.108 1724.12 201.54 1723.3 200.964C1722.39 200.314 1721.66 199.647 1721.13 198.963L1720.05 197.555L1719.24 196.432C1718.08 194.442 1717.16 192.065 1716.5 189.312C1715.86 186.651 1715.45 183.636 1715.29 180.283C1715.14 177.08 1715.03 173.729 1714.95 170.229C1714.87 166.554 1714.83 163.001 1714.83 159.586V159.13C1714.83 155.781 1714.87 152.317 1714.95 148.742C1715.03 145.329 1715.14 142.076 1715.29 139.001C1715.45 135.744 1715.86 132.813 1716.5 130.214C1717.16 127.535 1718.07 125.19 1719.24 123.194C1719.45 122.813 1719.71 122.401 1720.01 121.975C1720.33 121.527 1720.73 121.031 1721.18 120.493C1721.73 119.846 1722.45 119.216 1723.34 118.612C1724.14 118.066 1725.12 117.514 1726.26 116.965C1727.42 116.411 1728.76 115.899 1730.28 115.443C1731.73 115.005 1733.46 114.581 1735.44 114.178C1737.43 113.774 1739.66 113.472 1742.13 113.28C1744.62 113.086 1747.37 112.986 1750.38 112.986C1753.46 112.986 1756.26 113.086 1758.76 113.28C1761.27 113.476 1763.5 113.778 1765.44 114.178C1767.37 114.581 1769.07 115.001 1770.54 115.443C1772.06 115.901 1773.42 116.407 1774.59 116.951C1775.75 117.488 1776.76 118.04 1777.6 118.598C1778.51 119.194 1779.25 119.83 1779.81 120.493C1780.26 121.031 1780.66 121.527 1780.98 121.975C1781.28 122.399 1781.54 122.811 1781.74 123.198C1782.91 125.19 1783.83 127.565 1784.49 130.308C1785.13 132.981 1785.54 135.992 1785.69 139.343C1785.84 142.546 1785.96 145.901 1786.04 149.404L1786.04 149.406ZM1978.21 116.629V84.6665H1841.39V116.629H1890.06C1891.2 116.629 1892.12 116.983 1892.83 117.68C1893.53 118.388 1893.89 119.312 1893.89 120.447V239.743H1925.94V120.447C1925.94 119.312 1926.3 118.388 1927 117.688C1927.7 116.981 1928.62 116.629 1929.77 116.629H1978.21H1978.21ZM2078.56 147.708C2075.56 147.1 2072.44 146.793 2069.22 146.793H2035.22C2032.36 146.793 2030.93 145.369 2030.93 142.52V84.4404H1998.88V239.969H2069.68C2072.9 239.969 2076.01 239.663 2078.99 239.053C2081.99 238.442 2084.9 237.518 2087.73 236.29C2090.56 235.061 2093.22 233.607 2095.71 231.93C2098.16 230.272 2100.45 228.387 2102.56 226.282C2104.68 224.178 2106.56 221.899 2108.23 219.444C2109.9 216.995 2111.36 214.342 2112.6 211.493C2113.83 208.672 2114.76 205.767 2115.37 202.78C2115.98 199.803 2116.29 196.704 2116.29 193.493C2116.29 190.28 2115.98 187.183 2115.37 184.208C2114.76 181.221 2113.84 178.312 2112.6 175.491C2111.36 172.646 2109.89 169.983 2108.21 167.512C2106.55 165.066 2104.62 162.753 2102.45 160.588C2100.31 158.447 2097.98 156.535 2095.48 154.856C2092.97 153.17 2090.28 151.707 2087.41 150.475C2084.52 149.24 2081.57 148.314 2078.57 147.704L2078.56 147.708ZM2032.02 180.067C2032.81 179.19 2033.87 178.754 2035.22 178.754H2069.45C2071.47 178.754 2073.36 179.102 2075.12 179.801C2076.88 180.499 2078.48 181.539 2079.9 182.918C2081.34 184.306 2082.42 185.871 2083.15 187.607C2083.87 189.346 2084.23 191.235 2084.23 193.267C2084.3 195.278 2084.01 197.155 2083.33 198.895C2082.64 200.684 2081.58 202.292 2080.15 203.717C2078.74 205.127 2077.14 206.202 2075.37 206.926C2073.6 207.646 2071.7 208.01 2069.68 208.01H2035.21C2032.36 208.01 2030.93 206.586 2030.93 203.737V183.256C2030.93 181.939 2031.29 180.877 2032.02 180.067H2032.02ZM2156 239.971V84.8946H2123.94V239.971H2156ZM929.133 400.197C929.133 397.198 930.561 395.696 933.419 395.696H978.379C980.396 395.696 982.286 396.046 984.045 396.742C985.805 397.438 987.4 398.479 988.829 399.859C990.266 401.247 991.351 402.814 992.074 404.549C992.8 406.287 993.163 408.176 993.163 410.209C993.233 412.221 992.938 414.108 992.27 415.856C991.59 417.641 990.532 419.274 989.1 420.744C986.23 423.697 982.727 425.178 978.608 425.178H933.419C930.561 425.178 929.133 423.753 929.133 420.904V400.197V400.197Z" fill="white"/>
<path fill-rule="evenodd" clip-rule="evenodd" d="M767.665 458.02L774.756 459.101L774.758 459.097L774.725 459.731C774.721 459.817 774.734 459.875 774.711 459.907C774.633 460.015 774.146 459.828 771.216 459.481L769.777 459.315C769.254 459.279 768.738 459.237 768.244 459.191C758.483 458.29 740.761 464.939 747.643 467.868C750.986 469.29 737.901 468.694 726.13 468.157C715.504 467.673 705.948 467.237 710.517 468.38C719.865 470.719 725.716 472.327 722.658 472.203C712.407 471.785 588.147 463.15 578.642 456.888L559.989 444.598L512.326 440.362L471.82 427.182C468.02 425.945 457.165 430.613 446.825 435.757C438.562 440.941 406.215 468.704 406.191 468.882L274.631 533.38C228.391 556.049 222.453 556.514 169.433 555.829L102.564 554.965C84.5369 555.613 66.0107 555.685 48.5659 554.621L0.609964 554.455L0.3752 554.207C12.7779 553.387 28.9408 552.596 46.8309 551.721C77.8656 550.204 114.098 548.432 144.915 545.81L136.753 534.486L133.606 514.917C133.164 512.166 133.141 509.423 133.116 506.468C133.094 503.891 133.072 501.152 132.768 498.106C132.022 490.6 130.18 483.939 128.379 477.424C126.784 471.653 125.22 465.996 124.477 459.967L137.535 419.051C140.812 408.794 138.926 381.737 137.132 370.005C135.887 361.858 133.122 353.534 130.323 345.108C126.836 334.608 123.296 323.949 122.577 313.275C122.077 305.867 122.482 298.764 123.722 291.988C116.228 299.625 108.098 305.431 99.7792 311.372C92.6294 316.478 85.3404 321.684 78.1963 328.236C77.4514 329.016 76.7197 329.787 75.9976 330.548C65.8225 341.263 57.5602 349.964 41.4588 354.811C34.2132 356.992 29.9012 357.908 20.7174 357.03C17.9035 356.761 11.3087 356.756 6.45482 356.752C3.33041 356.749 0.927334 356.747 0.718316 356.676C-1.33534 355.373 1.31498 353.987 5.34383 351.88C6.43623 351.308 7.62998 350.684 8.85879 349.994C13.5732 347.349 16.3911 343.591 19.1992 339.847C22.7614 335.097 26.3078 330.368 33.6895 327.958C35.4699 327.377 37.206 326.76 38.9324 326.147C43.7241 324.447 48.4416 322.772 53.827 321.932C55.5675 321.661 57.3722 321.473 59.1803 321.284C64.1091 320.769 69.0635 320.252 72.8128 318.049C78.8107 312.73 87.6275 306.281 95.4611 300.552C100.068 297.182 104.334 294.062 107.488 291.566C112.547 287.561 117.672 281.058 122.51 274.92C128.07 267.864 133.252 261.289 137.523 259.535C147.13 246.009 160.955 234.685 177.985 225.902C180.249 224.734 182.619 223.524 185.083 222.267C218.392 205.27 268.906 179.493 306.507 129.159C312.528 121.096 318.679 111.344 324.779 101.672C333 88.6369 341.13 75.747 348.728 67.3323C366.231 47.9377 384.017 34.7192 402.104 26.4885C421.26 17.7695 466.06 5.73745 501.609 1.35997C529.57 -2.08519 545.085 1.11188 566.362 9.65877C586.341 17.6871 601.285 20.7483 620.892 24.7649C623.566 25.3127 626.326 25.8782 629.198 26.4765C634.562 27.5939 639.277 28.3815 643.555 29.0959C660.972 32.0048 671.111 33.6981 688.05 51.4969L699.27 66.496L751.819 75.395L751.823 75.409L777.023 79.6564L754.793 87.1149L754.795 87.1209L712.977 101.152L723.91 133.463C724.188 134.499 724.542 135.532 724.897 136.565C725.606 138.634 726.315 140.702 726.412 142.794C725.55 145.215 724.542 146.745 723.246 148.632L715.078 160.546L712.728 207.12C712.681 208.051 712.639 208.941 712.598 209.791C711.827 226.031 711.743 227.795 691.661 233.761C684.115 236.003 677.319 238.022 677.319 238.022L669.505 249.514L657.005 254.898L651.904 250.62L649.639 223.311L632.83 215.428L607.114 210.461C607.285 210.899 607.462 211.331 607.64 211.763C608.059 212.771 608.533 213.752 609.055 214.704C607.205 219.4 604.536 225.684 601.799 231.93C601.695 232.332 601.562 232.77 601.398 233.246L597.136 254.343L588.288 269.487L564.633 309.942C564.783 308.083 565.044 305.752 565.429 302.892C566.059 298.214 566.155 294.317 565.88 291.042C565.541 292.05 565.272 293.129 565.084 294.287C565.04 294.909 564.965 295.519 564.861 296.116L564.859 296.126C564.49 300.555 562.65 306.399 560.089 312.711C559.871 313.269 559.65 313.806 559.429 314.316L559.383 314.42C554.2 326.75 546.578 340.495 541.882 348.839H541.888L564.633 309.942C564.632 309.954 564.631 309.967 564.63 309.98L540.682 350.968C539.964 352.243 539.35 353.333 538.868 354.205C536.693 358.141 534.863 361.624 533.332 364.731C531.342 368.96 529.309 373.82 527.612 379.056C527.379 379.968 527.196 380.826 527.062 381.646C526.883 382.819 526.739 384.285 526.777 385.836C526.934 389.595 528.284 392.532 530.212 395.925C530.309 396.093 530.415 396.251 530.529 396.399L530.541 396.413L530.569 396.451L530.6 396.488C530.856 396.784 531.21 397.102 531.625 397.43L531.641 397.442L531.645 397.448C532.009 397.715 532.416 397.975 532.863 398.261C534.109 399.058 535.667 400.053 537.476 401.953L537.482 401.957C538.592 402.904 540.024 404.886 541.443 407.213V407.215L541.479 407.273L541.652 407.557C541.936 408.029 542.225 408.524 542.518 409.046C544.364 412.309 546.04 415.872 546.766 418.115L546.772 418.131L546.917 418.491L546.885 418.501C546.97 418.799 547.05 419.111 547.129 419.417C547.209 419.731 547.288 420.039 547.37 420.322L557.971 420.089C571.722 423.261 583.947 426.285 595.48 429.138C631.021 437.929 659.996 445.096 706.855 449.968C730.187 452.392 752.327 455.686 767.665 458.02ZM564.63 309.98L588.288 269.487L597.142 254.345C594.949 268 591.439 284.94 581.511 297.44C580.763 298.38 580.305 298.794 580.056 298.778C579.651 298.748 579.723 297.684 579.996 296.22C580.21 295.067 580.547 293.664 580.871 292.317C581.273 290.645 581.655 289.058 581.756 288.137C581.824 287.511 581.409 287.213 580.817 287.443C580.754 287.467 580.691 287.49 580.626 287.514C579.829 287.804 578.82 288.172 576.696 291.914C574.888 295.099 571.772 301.976 570.674 304.903C568.226 311.431 566.107 316.152 565.1 315.968C564.51 315.86 564.302 314.07 564.63 309.98ZM501.028 421.336L501.033 421.336L501.031 421.344C501.03 421.341 501.029 421.339 501.028 421.336ZM501.028 421.336C499.469 417.437 497.908 413.923 496.368 410.456C493.596 404.215 490.893 398.131 488.398 390.241L495.7 375.266C496.009 367.287 494.917 357.698 493.787 347.78C493.434 344.68 493.077 341.547 492.758 338.422C470.508 348.679 454.245 352.829 442.756 354.169C472.854 333.142 464.168 335.985 464.168 335.985C451.262 340.664 440.148 346.306 429.924 351.496C414.729 359.21 401.502 365.924 387.287 366.994C385.83 367.103 387.645 366.086 390.523 364.473C393.853 362.608 398.605 359.946 401.359 357.308C402.571 356.147 399.923 357.591 397.968 358.656C397.276 359.033 396.671 359.363 396.355 359.513L395.941 359.71C391.114 362.003 385.702 364.575 377.662 367.636C366.275 371.969 354.491 374.466 352.635 374.418C339.259 374.061 325.992 373.163 313.308 372.304C281.73 370.164 253.771 368.27 236.764 375.598C236.427 376.266 236.073 376.987 235.69 377.764C233.149 382.932 229.367 390.621 221.272 401.991C214.114 412.044 207.931 417.869 201.126 424.279C197.078 428.093 192.81 432.114 187.985 437.355C176.879 449.425 165.524 464.482 169.529 488.555C170.655 495.317 175.412 507.913 180.455 518.585C181.74 521.303 183.122 525.156 184.479 528.938C185.875 532.828 187.244 536.644 188.453 539.074C188.73 539.632 188.995 540.184 189.173 540.602C190.036 540.452 190.889 540.302 191.715 540.148C212.525 536.045 233.638 528.81 265.381 512.957C279.134 506.091 292.89 499.22 306.643 492.35C310.177 490.587 313.853 488.931 317.635 487.354L315.498 485.344C311.084 481.764 309.262 481.069 307.882 479.866C306.084 478.299 305.037 475.87 299.982 465.073C289.626 445.609 280.141 440.63 272.2 436.462C265.127 432.749 259.278 429.679 255.13 417.589C251.713 407.633 251.57 397.572 251.438 388.29C251.397 385.335 251.356 382.46 251.211 379.692C251.718 379.638 252.711 379.346 254.093 378.94C258.376 377.68 266.395 375.323 275.235 375.56C288.927 375.928 304.078 376.922 317.564 377.807C330.369 378.647 341.672 379.389 348.794 379.402C345.653 381.14 342.262 382.798 338.848 384.467C330.042 388.773 321.078 393.157 315.825 399.184C309.091 406.907 308.449 417.333 322.035 433.75C325.192 437.564 327.725 439.69 330.302 441.853C332.244 443.483 334.211 445.135 336.488 447.545C342.045 453.419 345.849 456.611 348.726 459.025C353.38 462.931 355.609 464.802 358.911 472.701C377.997 466.245 396.909 459.249 412.285 448.711C433.277 434.324 460.207 423.783 472.796 420.152C478.055 418.634 478.112 418.649 480.738 419.302C482.714 419.793 486.144 420.647 494.342 421.482L501.028 421.336ZM599.341 292.374C596.64 291.328 595.069 290.658 591.052 288.789L591.05 288.787C599.333 273.752 601.58 263.781 603.699 249.118L606.027 234.328C606.187 234.883 610.385 236.497 614.772 238.185C616.779 238.957 618.826 239.745 620.544 240.453C623.726 241.766 623.964 241.99 625.508 243.443C625.799 243.717 626.137 244.035 626.55 244.412L633.444 250.714C642.012 259.867 645.196 259.612 647.458 259.432C649.033 259.306 650.161 259.216 652.348 262.362C656.022 267.646 659.679 282.841 657.675 288.795C655.664 294.768 649.957 303.244 645.332 310.112C643.652 312.607 642.115 314.889 640.95 316.763C638.289 321.041 637.152 325.439 636.076 329.598C633.606 339.142 631.463 347.424 611.982 350.102C598.189 351.998 595.213 351.306 587.798 349.582C585.086 348.952 581.781 348.183 577.137 347.353L566.133 345.212C567.982 343.838 570.763 341.171 574.04 338.031C583.888 328.59 598.205 314.865 605.09 319.071C606.683 321.176 607.034 323.143 607.327 324.78C607.825 327.568 608.153 329.403 614.143 329.345C614.189 329.056 614.156 328.701 614.129 328.423C614.121 328.337 614.113 328.258 614.109 328.19L614.075 327.657C613.578 319.914 613.57 319.796 620.56 315.362C623.04 313.788 625.039 312.109 627.059 310.068C627.378 309.746 627.66 309.464 627.912 309.212C629.828 307.297 630.008 307.117 631.209 304.438C629.359 304.288 628.266 304.346 627.419 304.391C625.951 304.469 625.218 304.508 622.559 303.354C623.936 301.912 624.804 301.387 625.49 300.972C626.559 300.325 627.184 299.946 628.602 296.778C626.66 296.638 624.885 296.515 623.251 296.403C611.226 295.573 606.835 295.27 599.341 292.374ZM606.041 234.243L606.027 234.328C606.018 234.296 606.022 234.267 606.041 234.243ZM424.591 447.499C424.753 447.359 424.922 447.235 425.1 447.129L424.591 447.499ZM670.378 123.922L645.278 109.039H645.28C645.326 101.982 651.779 87.8976 656.715 85.3587C670.546 78.2503 739.862 80.143 753.165 80.5771L753.299 81.0973C733.864 85.3667 678.54 100.752 678.289 100.824M670.378 123.922C670.76 123.409 670.873 121.588 671.023 119.172ZM684.674 155.665C680.938 155.927 675.172 155.629 671.377 150.349L671.381 150.347C670.34 148.925 670.309 148.815 670.13 148.191C670.017 147.796 669.846 147.196 669.323 145.927C669.26 145.775 669.303 144.865 669.654 144.569L674.873 140.766C675.013 140.67 675.95 140.409 676.686 140.924C676.789 140.995 676.876 141.055 676.951 141.108L677.104 141.215M684.674 155.665C685.184 155.629 685.627 156.197 686.115 156.824ZM686.115 156.824C686.925 157.861 687.859 159.058 689.424 157.939ZM689.424 157.939C689.563 157.84 689.531 157.717 689.475 157.505ZM689.475 157.505C689.442 157.376 689.4 157.215 689.382 157.005ZM689.382 157.005L688.908 155.04ZM688.908 155.04C687.082 149.547 682.066 144.607 678.085 141.894ZM678.085 141.894C677.616 141.573 677.445 141.453 677.218 141.294ZM706.069 219.948L706.075 216.681C706.028 215.58 705.478 215.977 704.848 216.432L704.847 216.432C704.649 216.575 704.444 216.723 704.243 216.833L693.521 223.429L689.943 225.632C689.844 225.693 689.763 225.741 689.698 225.779C689.472 225.913 689.433 225.937 689.447 226.03C689.457 226.096 689.499 226.184 689.939 226.322L692.176 227.024C693.165 227.334 693.723 227.32 694.173 227.264C694.63 227.206 694.995 227.057 695.766 226.741L695.776 226.737C695.958 226.663 696.161 226.579 696.394 226.486L703.918 223.457C704.056 223.409 704.184 223.366 704.305 223.326C705.918 222.782 706.066 222.733 706.069 219.948Z" fill="white"/>
</g>
<defs>
<clipPath id="clip0_730_26">
<rect width="2156" height="556" fill="white"/>
</clipPath>
</defs>
</svg>
