<svg width="29" height="29" viewBox="0 0 29 29" fill="none" xmlns="http://www.w3.org/2000/svg">
<path d="M17.8108 14.495C17.8083 12.664 16.3333 11.191 14.5011 11.189C12.6718 11.187 11.1938 12.661 11.1873 14.4925C11.1808 16.3296 12.6743 17.8199 14.511 17.811C16.3463 17.8015 17.8138 16.3266 17.8108 14.495Z" fill="white"/>
<path fill-rule="evenodd" clip-rule="evenodd" d="M8.0504 14.5064H8.05833C8.05833 14.1046 8.05495 13.7028 8.05157 13.301C8.0439 12.3896 8.03623 11.4784 8.06801 10.5691C8.11732 9.16077 9.24835 8.07113 10.6585 8.05925C13.2177 8.03723 15.7778 8.03635 18.3371 8.05925C19.8124 8.07201 20.9355 9.23517 20.946 10.7422C20.9636 13.2433 20.9632 15.7444 20.9465 18.245C20.9359 19.8022 19.8005 20.9354 18.2402 20.9456C15.732 20.9619 13.2239 20.9614 10.7157 20.9451C9.38791 20.9363 8.33305 20.0338 8.09399 18.75C8.05789 18.5567 8.0526 18.356 8.05216 18.1587C8.04952 17.246 8.04985 16.333 8.05018 15.4201L8.0504 14.5064ZM19.0013 14.5065C18.9978 17.007 16.9851 19.0079 14.4816 19C11.9826 18.992 9.99434 16.9816 10.0013 14.4686C10.0078 11.987 12.0259 9.99106 14.5195 10C17.01 10.0095 19.0048 12.0149 19.0013 14.5065ZM18.0016 9.99952C18.0001 10.5643 18.4446 11.0038 19.0131 11C19.5677 10.9961 19.9996 10.5595 20.0016 10.0005C20.003 9.43522 19.5595 8.99616 18.9905 9.00003C18.4379 9.00341 18.003 9.44295 18.0016 9.99952Z" fill="white"/>
<path fill-rule="evenodd" clip-rule="evenodd" d="M29 14.5C29 22.5081 22.5081 29 14.5 29C6.49187 29 0 22.5081 0 14.5C0 6.49187 6.49187 0 14.5 0C22.5081 0 29 6.49187 29 14.5ZM21.9985 15.7373C21.9979 15.332 21.9972 14.9267 21.9974 14.5213L21.9977 13.7906C21.9983 12.8161 21.9989 11.8419 21.9961 10.8676L21.9959 10.8235C21.9952 10.6107 21.9946 10.3958 21.9604 10.1874C21.646 8.28113 20.1342 7.00219 18.2015 7.00087C15.7364 6.99955 13.2714 6.99955 10.8064 7.00219C10.5942 7.00263 10.3789 7.00659 10.1707 7.04137C8.27669 7.3588 7.00258 8.86756 7.00082 10.7915C6.99906 13.271 6.9995 15.751 7.0017 18.2305C7.0017 18.4277 7.00743 18.628 7.04001 18.8222C7.35963 20.7219 8.86092 21.9956 10.7853 21.9982C13.2578 22.0013 15.7298 22 18.2023 21.9973C18.4145 21.9973 18.6298 21.9912 18.8381 21.956C20.7145 21.6376 21.9824 20.1478 21.9956 18.2406C22.0012 17.4062 21.9999 16.5718 21.9985 15.7373Z" fill="white"/>
</svg>
