<svg width="29" height="29" viewBox="0 0 29 29" fill="none" xmlns="http://www.w3.org/2000/svg">
<path d="M0.00812653 14.462C-0.192039 6.93416 6.27855 -0.28452 15.028 0.00863473C22.1045 0.246155 29.0053 5.91881 29 14.5219C28.9957 22.5516 22.691 29.0192 14.4821 29C5.31305 28.9775 -0.242348 21.3159 0.00812653 14.462ZM21.7352 9.5672C21.7673 8.69095 21.0726 8.20842 20.2891 8.50371C15.3716 10.3568 10.4585 12.2206 5.54318 14.079C5.17924 14.217 4.88917 14.4224 4.8988 14.8461C4.90843 15.2709 5.21136 15.4581 5.57958 15.5822C6.43269 15.869 7.29115 16.1429 8.13035 16.467C8.84966 16.7452 9.47798 16.6586 10.1234 16.2424C12.1197 14.9531 14.1342 13.6928 16.1423 12.4217C16.4463 12.2291 16.7471 12.028 17.0629 11.8568C17.1485 11.8108 17.2855 11.8579 17.4 11.8632C17.384 11.9873 17.4054 12.1371 17.3444 12.2313C17.248 12.3789 17.096 12.4891 16.9665 12.6143C15.3973 14.1261 13.8249 15.6347 12.26 17.1507C11.7333 17.66 11.7483 18.0644 12.3285 18.487C13.9876 19.696 15.6489 20.9007 17.3262 22.0851C18.0658 22.6073 18.8965 22.2692 19.1341 21.3897C19.1673 21.2677 19.193 21.1447 19.2197 21.0216C19.801 18.3865 20.3843 15.7502 20.9634 13.1139C21.2289 11.9028 21.49 10.6895 21.7352 9.5672Z" fill="white"/>
</svg>
