<svg width="29" height="29" viewBox="0 0 29 29" fill="none" xmlns="http://www.w3.org/2000/svg">
<path d="M15.0327 0.00192768C15.7991 0.088591 16.5782 0.112129 17.3307 0.267267C20.7334 0.971273 23.5491 2.67565 25.7393 5.38361C27.5292 7.59727 28.5742 10.1319 28.8645 12.9715C28.9061 13.3834 28.9467 13.7953 28.9883 14.2072C29.0555 15.0685 28.8175 16.6284 28.666 17.3549C27.8964 21.0365 26.0093 24.0269 22.9663 26.2331C19.6981 28.603 16.0371 29.4332 12.058 28.7902C9.2039 28.3291 6.71484 27.0826 4.61003 25.1033C2.10602 22.7484 0.607463 19.8585 0.136762 16.4391C-0.0895165 14.7935 -0.0361504 13.1576 0.305402 11.5346C0.983169 8.31519 2.57032 5.62327 5.05831 3.47916C7.32536 1.52656 9.95318 0.387098 12.9311 0.0714723C13.3516 0.0265358 14.9409 -0.0087715 15.0327 0.00192768ZM19.4334 23.6546C19.6992 23.5957 19.9671 23.5861 20.188 23.4781C21.3247 22.926 22.1103 22.0219 22.5895 20.8696C22.8041 20.355 22.6835 19.8435 22.2256 19.4594C21.9438 19.2219 21.678 18.9609 21.3792 18.748C20.6267 18.2109 19.8753 17.6695 19.0929 17.1773C18.2508 16.6477 17.5516 16.7975 16.9315 17.5678C16.7533 17.7893 16.5761 18.0108 16.3893 18.2237C16.1545 18.4922 15.8578 18.6196 15.5045 18.5275C15.2056 18.4494 14.9036 18.3628 14.6218 18.2376C13.532 17.754 12.6354 17.0083 11.8403 16.1309C11.1422 15.3617 10.6139 14.5004 10.3876 13.4754C10.2787 12.98 10.3588 12.5424 10.7932 12.2075C11.0995 11.9711 11.3888 11.7111 11.6716 11.4468C12.0302 11.113 12.1562 10.699 11.9694 10.2357C11.3535 8.70464 10.3545 7.43892 9.1484 6.34547C8.73427 5.96993 8.18031 5.94104 7.66478 6.2449C6.9187 6.68356 6.242 7.21103 5.6635 7.85833C5.3956 8.15791 5.22055 8.51098 5.27498 8.91755C5.32835 9.32626 5.38492 9.74781 5.53115 10.1287C7.98285 16.5129 12.4156 20.9413 18.7257 23.4995C18.9477 23.5904 19.1996 23.6054 19.4334 23.6546ZM14.5428 5.77627C14.467 5.77627 14.3912 5.77627 14.3165 5.77627C13.8906 5.77841 13.6708 5.95709 13.6633 6.30909C13.6548 6.67714 13.8736 6.86866 14.3069 6.89755C14.6634 6.92215 15.021 6.95425 15.3743 7.00347C18.239 7.40255 20.4452 9.3391 21.1401 12.1369C21.3386 12.9362 21.3781 13.7771 21.4816 14.5988C21.5211 14.908 21.7111 15.1145 22.0036 15.1306C22.2811 15.1455 22.4988 14.9722 22.5597 14.6726C22.5842 14.5539 22.5981 14.4266 22.5842 14.3067C22.502 13.6049 22.4529 12.8944 22.3152 12.2033C21.5713 8.44893 18.2774 5.8608 14.5428 5.77627ZM20.505 13.4465C20.5189 13.4433 20.5328 13.4401 20.5466 13.438C20.4559 12.9287 20.4057 12.4076 20.267 11.9112C19.4996 9.17433 17.1535 7.94713 14.9559 7.87545C14.7168 7.86796 14.53 7.94071 14.4168 8.16112C14.2204 8.54201 14.4787 8.93681 14.9591 8.99779C15.2302 9.03203 15.5023 9.05771 15.7681 9.11548C17.4983 9.48996 18.6873 10.4871 19.1794 12.214C19.3224 12.7147 19.3256 13.2571 19.3843 13.7814C19.4195 14.0917 19.5903 14.2725 19.887 14.2875C20.2083 14.3035 20.4196 14.1505 20.4762 13.8445C20.5007 13.7129 20.4965 13.5792 20.505 13.4465ZM18.4557 12.9704C18.4418 12.8634 18.4205 12.7329 18.4077 12.6013C18.2614 11.0595 17.0372 9.98319 15.4863 10.0345C15.2142 10.0431 15.0146 10.2111 14.9708 10.4668C14.9249 10.7396 15.0583 10.9964 15.3102 11.0831C15.433 11.1259 15.5674 11.1408 15.6977 11.158C16.622 11.2799 17.082 11.7004 17.2709 12.6056C17.304 12.7618 17.3179 12.9233 17.3435 13.0806C17.4054 13.4593 17.5975 13.6241 17.9508 13.6016C18.2497 13.5845 18.4514 13.3417 18.4557 12.9704Z" fill="white"/>
</svg>
